# Blender 4.4.1
# www.blender.org
mtllib Untitled.mtl
o Cube
o Cube.001
v -1.999549 -0.201429 2.007833
v -1.999549 0.198571 2.007833
v -1.999549 -0.201429 -1.992167
v -1.999549 0.198571 -1.992167
v 2.000451 -0.201429 2.007833
v 2.000451 0.198571 2.007833
v 2.000451 -0.201429 -1.992167
v 2.000451 0.198571 -1.992167
v -1.999549 0.198571 2.007833
v -1.999549 0.198571 -1.992167
v 2.000451 0.198571 -1.992167
v 2.000451 0.198571 2.007833
v -1.979549 0.198571 1.987833
v -1.979549 0.198571 -1.972167
v 1.980451 0.198571 -1.972167
v 1.980451 0.198571 1.987833
v -1.999549 0.198571 2.007833
v -1.999549 0.198571 -1.992167
v 2.000451 0.198571 -1.992167
v 2.000451 0.198571 2.007833
v -1.979549 0.198571 1.987833
v -1.979549 0.198571 -1.972167
v 1.980451 0.198571 -1.972167
v 1.980451 0.198571 1.987833
v -1.979549 -0.168553 1.987833
v -1.979549 -0.168553 -1.972167
v 1.980451 -0.168553 -1.972167
v 1.980451 -0.168553 1.987833
v -1.979549 -0.168553 1.987833
v -1.979549 -0.168553 -1.972167
v 1.980451 -0.168553 -1.972167
v 1.980451 -0.168553 1.987833
vn -1.0000 -0.0000 -0.0000
vn -0.0000 -0.0000 -1.0000
vn 1.0000 -0.0000 -0.0000
vn -0.0000 -0.0000 1.0000
vn -0.0000 -1.0000 -0.0000
vn -0.0000 1.0000 -0.0000
vt 0.375000 0.000000
vt 0.625000 0.000000
vt 0.625000 0.250000
vt 0.375000 0.250000
vt 0.625000 0.500000
vt 0.375000 0.500000
vt 0.625000 0.750000
vt 0.375000 0.750000
vt 0.625000 1.000000
vt 0.375000 1.000000
vt 0.125000 0.500000
vt 0.125000 0.750000
vt 0.873750 0.748750
vt 0.626250 0.748750
vt 0.873750 0.501250
vt 0.875000 0.500000
vt 0.875000 0.750000
vt 0.626250 0.501250
s 0
f 1/1/1 2/2/1 4/3/1 3/4/1
f 3/4/2 4/3/2 8/5/2 7/6/2
f 7/6/3 8/5/3 6/7/3 5/8/3
f 5/8/4 6/7/4 2/9/4 1/10/4
f 3/11/5 7/6/5 5/8/5 1/12/5
f 4/3/6 2/2/6 9/2/6 10/3/6
f 9/9/6 12/7/6 20/7/6 17/9/6
f 2/9/6 6/7/6 12/7/6 9/9/6
f 8/5/6 4/3/6 10/3/6 11/5/6
f 6/7/6 8/5/6 11/5/6 12/7/6
f 13/13/6 16/14/6 24/14/6 21/13/6
f 11/5/6 10/3/6 18/3/6 19/5/6
f 12/7/6 11/5/6 19/5/6 20/7/6
f 10/3/6 9/2/6 17/2/6 18/3/6
f 13/13/6 14/15/6 18/16/6 17/17/6
f 14/15/6 15/18/6 19/5/6 18/16/6
f 15/18/6 16/14/6 20/7/6 19/5/6
f 16/14/6 13/13/6 17/17/6 20/7/6
f 21/13/2 24/14/2 28/14/2 25/13/2
f 15/18/6 14/15/6 22/15/6 23/18/6
f 16/14/6 15/18/6 23/18/6 24/14/6
f 14/15/6 13/13/6 21/13/6 22/15/6
f 28/14/6 27/18/6 31/18/6 32/14/6
f 23/18/4 22/15/4 26/15/4 27/18/4
f 24/14/1 23/18/1 27/18/1 28/14/1
f 22/15/3 21/13/3 25/13/3 26/15/3
f 31/18/6 30/15/6 29/13/6 32/14/6
f 26/15/6 25/13/6 29/13/6 30/15/6
f 25/13/6 28/14/6 32/14/6 29/13/6
f 27/18/6 26/15/6 30/15/6 31/18/6
